<svg xmlns="http://www.w3.org/2000/svg" width="317.55" height="188.36" viewBox="0 0 317.55 188.36"><path d="M0,1.88H19.11V74.94H0ZM53.07.26A42.13,42.13,0,0,1,65.56,2a27.33,27.33,0,0,1,10,5.44,24.57,24.57,0,0,1,6.62,9.33,35.09,35.09,0,0,1,2.35,13.45V74.94H65.42V33.63q0-9.26-4.49-13.6T46.31,15.7a31.71,31.71,0,0,0-13.82,2.94,29.61,29.61,0,0,0-10,7.42,17.61,17.61,0,0,0-4.41,9.34l-.15-7.5a29.42,29.42,0,0,1,3.39-10A33.85,33.85,0,0,1,39.1,2.61,39.2,39.2,0,0,1,53.07.26Zm63.65,0A42.24,42.24,0,0,1,129.22,2a27.37,27.37,0,0,1,10,5.44,25.27,25.27,0,0,1,6.69,9.33,33.94,33.94,0,0,1,2.43,13.45V74.94H129.22V33.63q0-9.26-4.56-13.6T110,15.7a31.75,31.75,0,0,0-13.82,2.94,29.61,29.61,0,0,0-10,7.42,16.76,16.76,0,0,0-4.26,9.34l-.29-7.94a27.53,27.53,0,0,1,3.53-9.7,34.27,34.27,0,0,1,7.35-8.82,35.43,35.43,0,0,1,10.65-6.33A37.72,37.72,0,0,1,116.72.26Z" fill="#333"></path><path d="M95.82,151a40.38,40.38,0,0,1-19.46-4.7,35.66,35.66,0,0,1-13.89-13.16,37,37,0,0,1-5.13-19.6q0-11.43,5.2-19.82A36.24,36.24,0,0,1,76.65,80.63a42.46,42.46,0,0,1,20.18-4.7q12.44,0,20,5a28.67,28.67,0,0,1,11.07,13.52,50.18,50.18,0,0,1,3.47,19.1,43.8,43.8,0,0,1-2,12.94,39.48,39.48,0,0,1-6.22,12.16,30.67,30.67,0,0,1-11,9A36.14,36.14,0,0,1,95.82,151Zm6.07-14.46a34.73,34.73,0,0,0,14.76-2.89A22.93,22.93,0,0,0,126.12,101a21.35,21.35,0,0,0-9.55-7.81,36.69,36.69,0,0,0-14.68-2.67q-12,0-18.66,6.29t-6.65,16.71a22.49,22.49,0,0,0,3.18,12.08,21.75,21.75,0,0,0,8.9,8A28.87,28.87,0,0,0,101.89,136.54Zm27.63-59h18.81v71.89H130.82q-.72-5.64-1-10t-.29-8.53Z" fill="#333"></path><path d="M175.94,0V127.71q0,5.55-.52,11.9c-.35,4.22-.69,7.67-1,10.33h-21V0Zm40.48,151.85q-11.47,0-19.63-4.08A36.64,36.64,0,0,1,183.59,137a47.05,47.05,0,0,1-7.47-14.59,52.4,52.4,0,0,1-2.43-15.55A64.19,64.19,0,0,1,176,89.14a39.69,39.69,0,0,1,7.38-14.33,33.8,33.8,0,0,1,13.2-9.64q8.17-3.47,19.81-3.47a48.71,48.71,0,0,1,23.71,5.64,42.32,42.32,0,0,1,16.33,15.72q6,10.08,6,23.8a45,45,0,0,1-6.08,23.54,42.43,42.43,0,0,1-16.5,15.81A48.49,48.49,0,0,1,216.42,151.85Zm-7.3-17.37a34.52,34.52,0,0,0,16-3.47,25.69,25.69,0,0,0,10.51-9.64,27.47,27.47,0,0,0,3.74-14.51q0-12.51-7.91-20.15t-22.32-7.64a43.06,43.06,0,0,0-17.54,3.3A26,26,0,0,0,180,91.84a26.54,26.54,0,0,0-4.09,15A25.53,25.53,0,0,0,191.4,131,41.65,41.65,0,0,0,209.12,134.48Z" fill="#333"></path><path d="M260,157.53l-13.28,9.61-.7-2.08h29.15v7.44H238.47v-7.44q6.43-4.86,11.45-8.23t8.47-6a23.53,23.53,0,0,0,5.31-5.46,11.41,11.41,0,0,0,1.83-6.44,10.6,10.6,0,0,0-1.09-4.91,8,8,0,0,0-3.32-3.37,12,12,0,0,0-5.8-1.24,11,11,0,0,0-7.53,2.78,9.15,9.15,0,0,0-3.18,7.24h-6.94a14.12,14.12,0,0,1,1.84-8.88,16.94,16.94,0,0,1,6.54-6.24,18.77,18.77,0,0,1,9.27-2.33,20.84,20.84,0,0,1,7.73,1.33,17.07,17.07,0,0,1,5.7,3.62,15.07,15.07,0,0,1,3.52,5.26,16.49,16.49,0,0,1,1.19,6.24,15.19,15.19,0,0,1-.94,5.46,19,19,0,0,1-2.68,4.76,31,31,0,0,1-4.21,4.46C264,154.52,262.09,156,260,157.53Zm40-3.87.09-.49a31,31,0,0,1,6.94,1.28,16.69,16.69,0,0,1,5.56,2.93,12.65,12.65,0,0,1,3.66,5,19.16,19.16,0,0,1,1.29,7.43,18.49,18.49,0,0,1-2.38,9.27,17.81,17.81,0,0,1-6.69,6.74,19.47,19.47,0,0,1-10.06,2.53,19.26,19.26,0,0,1-9.77-2.53,18.08,18.08,0,0,1-6.84-6.74,15.15,15.15,0,0,1-1.93-9.27h6.94a11.57,11.57,0,0,0,1.39,5.7,10.2,10.2,0,0,0,4,4,12.33,12.33,0,0,0,6.25,1.48,10.75,10.75,0,0,0,8.18-3.17,11.72,11.72,0,0,0,3-8.43,11.44,11.44,0,0,0-3.32-8.52q-3.32-3.27-9.07-3.27h-5.65v-7.34h5.65a13.64,13.64,0,0,0,6.34-1.34,8.8,8.8,0,0,0,3.87-3.81,12.1,12.1,0,0,0,1.29-5.66,10.27,10.27,0,0,0-2.63-7.28q-2.62-2.83-7.88-2.83a10.54,10.54,0,0,0-7.43,2.83,9.44,9.44,0,0,0-3.08,7.28h-6.94a14.33,14.33,0,0,1,.85-6.84,15.81,15.81,0,0,1,3.71-5.6,17.72,17.72,0,0,1,5.8-3.77,18.86,18.86,0,0,1,7.09-1.33,19.53,19.53,0,0,1,9.72,2.33,16.65,16.65,0,0,1,6.44,6.29,17.6,17.6,0,0,1,2.28,8.92,16.37,16.37,0,0,1-1.24,6.8,10.55,10.55,0,0,1-3.47,4.31,14.49,14.49,0,0,1-5.3,2.28A34.31,34.31,0,0,1,300,153.66Z" fill="#4361ee"></path></svg>